<svg width="11" height="11" viewBox="0 0 11 11" fill="none" xmlns="http://www.w3.org/2000/svg">
<path d="M9.71296 4.32143H6.49867V0.785714C6.49867 0.351853 6.17881 0 5.78439 0H5.0701C4.67568 0 4.35582 0.351853 4.35582 0.785714V4.32143H1.14153C0.747112 4.32143 0.427246 4.67328 0.427246 5.10714V5.89286C0.427246 6.32672 0.747112 6.67857 1.14153 6.67857H4.35582V10.2143C4.35582 10.6481 4.67568 11 5.0701 11H5.78439C6.17881 11 6.49867 10.6481 6.49867 10.2143V6.67857H9.71296C10.1074 6.67857 10.4272 6.32672 10.4272 5.89286V5.10714C10.4272 4.67328 10.1074 4.32143 9.71296 4.32143Z" fill="#FF5B19"/>
</svg>
