<svg width="25" height="25" viewBox="0 0 25 25" fill="none" xmlns="http://www.w3.org/2000/svg">
<g clip-path="url(#clip0_375_220)">
<path d="M12.5 1.68652V23.6865" stroke="#CCCCCC" stroke-opacity="0.8" stroke-width="2" stroke-linecap="round" stroke-linejoin="round"/>
<path d="M17.5 5.68652H10C9.07174 5.68652 8.1815 6.05527 7.52513 6.71165C6.86875 7.36803 6.5 8.25827 6.5 9.18652C6.5 10.1148 6.86875 11.005 7.52513 11.6614C8.1815 12.3178 9.07174 12.6865 10 12.6865H15C15.9283 12.6865 16.8185 13.0553 17.4749 13.7116C18.1313 14.368 18.5 15.2583 18.5 16.1865C18.5 17.1148 18.1313 18.005 17.4749 18.6614C16.8185 19.3178 15.9283 19.6865 15 19.6865H6.5" stroke="#CCCCCC" stroke-opacity="0.8" stroke-width="2" stroke-linecap="round" stroke-linejoin="round"/>
</g>
<defs>
<clipPath id="clip0_375_220">
<rect width="24" height="24" fill="white" transform="translate(0.5 0.686523)"/>
</clipPath>
</defs>
</svg>
