<svg width="25" height="25" viewBox="0 0 25 25" fill="none" xmlns="http://www.w3.org/2000/svg">
<g clip-path="url(#clip0_172_6766)">
<path d="M12.5 1.5V23.5" stroke="#CCCCCC" stroke-opacity="0.8" stroke-width="2" stroke-linecap="round" stroke-linejoin="round"/>
<path d="M17.5 5.5H10C9.07174 5.5 8.1815 5.86875 7.52513 6.52513C6.86875 7.1815 6.5 8.07174 6.5 9C6.5 9.92826 6.86875 10.8185 7.52513 11.4749C8.1815 12.1313 9.07174 12.5 10 12.5H15C15.9283 12.5 16.8185 12.8687 17.4749 13.5251C18.1313 14.1815 18.5 15.0717 18.5 16C18.5 16.9283 18.1313 17.8185 17.4749 18.4749C16.8185 19.1313 15.9283 19.5 15 19.5H6.5" stroke="#CCCCCC" stroke-opacity="0.8" stroke-width="2" stroke-linecap="round" stroke-linejoin="round"/>
</g>
<defs>
<clipPath id="clip0_172_6766">
<rect width="24" height="24" fill="white" transform="translate(0.5 0.5)"/>
</clipPath>
</defs>
</svg>
