<svg width="24" height="24" viewBox="0 0 24 24" fill="none" xmlns="http://www.w3.org/2000/svg">
<g clip-path="url(#clip0_217_11)">
<path d="M23.766 12.2763C23.766 11.4605 23.6999 10.6404 23.5588 9.83789H12.24V14.4589H18.7217C18.4528 15.9492 17.5885 17.2676 16.323 18.1054V21.1037H20.19C22.4608 19.0137 23.766 15.9272 23.766 12.2763Z" fill="#4285F4"/>
<path d="M12.24 24.0008C15.4764 24.0008 18.2058 22.9382 20.1944 21.1039L16.3274 18.1055C15.2516 18.8375 13.8626 19.252 12.2444 19.252C9.11378 19.252 6.45936 17.1399 5.50694 14.3003H1.51649V17.3912C3.55361 21.4434 7.70279 24.0008 12.24 24.0008Z" fill="#34A853"/>
<path d="M5.50254 14.3002C4.99988 12.8099 4.99988 11.196 5.50254 9.70569V6.61475H1.51651C-0.185495 10.0055 -0.185495 14.0004 1.51651 17.3912L5.50254 14.3002Z" fill="#FBBC04"/>
<path d="M12.24 4.74966C13.9508 4.72321 15.6043 5.36697 16.8433 6.54867L20.2694 3.12262C18.1 1.08551 15.2207 -0.034466 12.24 0.000808666C7.70279 0.000808666 3.55361 2.55822 1.51649 6.61481L5.50253 9.70575C6.45054 6.86173 9.10936 4.74966 12.24 4.74966Z" fill="#EA4335"/>
</g>
<defs>
<clipPath id="clip0_217_11">
<rect width="24" height="24" fill="white"/>
</clipPath>
</defs>
</svg>
