<svg width="24" height="24" viewBox="0 0 24 24" fill="none" xmlns="http://www.w3.org/2000/svg">
<path d="M15.4737 11.9231C16.4132 11.2161 17.099 10.2465 17.4356 9.14924C17.7722 8.05201 17.7429 6.8817 17.3518 5.80114C16.9607 4.72057 16.2272 3.78348 15.2533 3.12024C14.2795 2.457 13.1137 2.10059 11.9183 2.10059C10.7228 2.10059 9.55705 2.457 8.5832 3.12024C7.60936 3.78348 6.87585 4.72057 6.48472 5.80114C6.0936 6.8817 6.0643 8.05201 6.40092 9.14924C6.73753 10.2465 7.42331 11.2161 8.36285 11.9231C6.75293 12.5401 5.34821 13.5634 4.29846 14.8839C3.24871 16.2044 2.59327 17.7727 2.40202 19.4215C2.38818 19.5418 2.39926 19.6636 2.43463 19.7799C2.47 19.8962 2.52897 20.0047 2.60817 20.0992C2.76812 20.29 3.00077 20.4122 3.25494 20.439C3.5091 20.4657 3.76397 20.3948 3.96346 20.2418C4.16295 20.0888 4.29073 19.8662 4.31869 19.6231C4.52912 17.8312 5.42239 16.1763 6.82781 14.9745C8.23324 13.7727 10.0523 13.1084 11.9374 13.1084C13.8226 13.1084 15.6416 13.7727 17.0471 14.9745C18.4525 16.1763 19.3458 17.8312 19.5562 19.6231C19.5822 19.8484 19.6946 20.0564 19.8716 20.2071C20.0486 20.3577 20.2776 20.4403 20.5145 20.439H20.6199C20.8711 20.4113 21.1008 20.2898 21.2587 20.1009C21.4167 19.9121 21.4902 19.6711 21.4633 19.4306C21.2711 17.7771 20.6122 16.2049 19.557 14.8823C18.5019 13.5598 17.0903 12.5368 15.4737 11.9231ZM11.9183 11.2723C11.1601 11.2723 10.419 11.0572 9.78859 10.6543C9.1582 10.2514 8.66687 9.67879 8.37673 9.0088C8.0866 8.3388 8.01068 7.60156 8.15859 6.89029C8.3065 6.17903 8.67159 5.52569 9.20769 5.0129C9.7438 4.50011 10.4268 4.15089 11.1704 4.00941C11.914 3.86793 12.6848 3.94054 13.3852 4.21807C14.0857 4.49559 14.6844 4.96555 15.1056 5.56853C15.5268 6.17151 15.7516 6.88043 15.7516 7.60562C15.7516 8.57808 15.3477 9.51072 14.6288 10.1983C13.91 10.886 12.9349 11.2723 11.9183 11.2723Z" fill="#CCCCCC"/>
</svg>
