<svg width="24" height="25" viewBox="0 0 24 25" fill="none" xmlns="http://www.w3.org/2000/svg">
<g clip-path="url(#clip0_113_6741)">
<g clip-path="url(#clip1_113_6741)">
<g clip-path="url(#clip2_113_6741)">
<path d="M16.0221 6.25378H15.901C14.1403 6.20078 12.8268 4.91109 12.8268 3.32106C12.8268 1.69569 14.2242 0.379497 15.9289 0.379497C17.6337 0.379497 19.0311 1.70452 19.0311 3.32106C19.0322 4.08486 18.7197 4.81908 18.1598 5.36816C17.5999 5.91724 16.8365 6.23805 16.0314 6.26262C16.0314 6.25378 16.0314 6.25378 16.0221 6.25378ZM15.9289 1.69569C14.9881 1.69569 14.2242 2.42004 14.2242 3.31222C14.2242 4.18674 14.9415 4.89342 15.8637 4.92876C15.8731 4.91992 15.9476 4.91992 16.0314 4.92876C16.4725 4.90118 16.8851 4.71238 17.1824 4.40212C17.4796 4.09185 17.6383 3.68433 17.625 3.26535C17.6117 2.84636 17.4275 2.44861 17.1112 2.15584C16.7948 1.86306 16.371 1.6981 15.9289 1.69569ZM16.0305 12.7623C15.6672 12.7623 15.3039 12.7358 14.9405 12.674C14.8499 12.659 14.7633 12.6273 14.6857 12.5806C14.6081 12.5338 14.5409 12.473 14.4881 12.4016C14.4353 12.3302 14.3979 12.2496 14.3781 12.1645C14.3582 12.0793 14.3562 11.9913 14.3723 11.9055C14.388 11.8196 14.4215 11.7374 14.4708 11.6638C14.5201 11.5902 14.5842 11.5265 14.6595 11.4765C14.7348 11.4264 14.8198 11.3909 14.9096 11.3721C14.9994 11.3532 15.0922 11.3514 15.1828 11.3666C16.3286 11.5521 17.5396 11.349 18.3501 10.8366C18.788 10.5628 19.0208 10.2183 19.0208 9.87376C19.0208 9.52925 18.7786 9.19357 18.3501 8.91974C17.5396 8.40739 16.31 8.20422 15.1548 8.39856C14.7729 8.46923 14.4095 8.22189 14.3443 7.85971C14.2791 7.49754 14.5307 7.15303 14.9126 7.0912C16.4311 6.83503 18.0054 7.10887 19.1233 7.81555C19.9431 8.33672 20.4182 9.07874 20.4182 9.87376C20.4182 10.6599 19.9524 11.4108 19.1233 11.9408C18.2756 12.4708 17.1763 12.7623 16.0305 12.7623ZM4.81525 6.25202H4.79662C3.99291 6.22816 3.23051 5.90879 2.67068 5.36146C2.11086 4.81413 1.79752 4.08176 1.79695 3.31929C1.79695 1.69392 3.19431 0.368896 4.89909 0.368896C6.60388 0.368896 8.00124 1.69392 8.00124 3.31046C8.00124 4.90932 6.68772 6.19901 5.01088 6.25202L4.81525 5.5895L4.88046 6.25202H4.81525ZM4.90841 4.92699C4.9643 4.92699 5.01088 4.92699 5.06678 4.93582C5.89588 4.90049 6.62251 4.19381 6.62251 3.31929C6.62201 3.00344 6.52394 2.69464 6.34041 2.43105C6.15689 2.16746 5.89595 1.96063 5.58983 1.8361C5.28371 1.71158 4.94583 1.67482 4.61792 1.73037C4.29001 1.78591 3.98645 1.93133 3.74474 2.14866C3.50302 2.36598 3.33375 2.64569 3.25782 2.95323C3.18189 3.26077 3.20265 3.58267 3.31751 3.87915C3.43238 4.17563 3.63632 4.43371 3.90415 4.6215C4.17198 4.80929 4.49197 4.91856 4.82457 4.93582C4.83388 4.92699 4.87115 4.92699 4.90841 4.92699ZM4.80593 12.7623C3.6601 12.7623 2.56084 12.4708 1.7131 11.9408C0.893317 11.4196 0.418213 10.6688 0.418213 9.87376C0.418213 9.08757 0.893317 8.33672 1.7131 7.81555C2.83099 7.10887 4.40536 6.83503 5.92383 7.0912C6.30577 7.15303 6.5573 7.49754 6.49209 7.85971C6.42688 8.22189 6.06356 8.46923 5.68162 8.39856C4.52646 8.20422 3.3061 8.40739 2.48631 8.91974C2.04847 9.19357 1.81558 9.52925 1.81558 9.87376C1.81558 10.2183 2.05779 10.5628 2.48631 10.8366C3.29678 11.349 4.50783 11.5521 5.65367 11.3666C6.03561 11.3048 6.39893 11.5521 6.46414 11.9055C6.52935 12.2676 6.27782 12.6121 5.89588 12.674C5.53256 12.7358 5.16925 12.7623 4.80593 12.7623ZM10.4327 12.8506H10.3115C8.55087 12.7976 7.23735 11.508 7.23735 9.91792C7.23735 8.29256 8.63471 6.97636 10.3395 6.97636C12.0443 6.97636 13.4416 8.30139 13.4416 9.91792C13.4428 10.6817 13.1303 11.4159 12.5704 11.965C12.0104 12.5141 11.2471 12.8349 10.442 12.8595C10.442 12.8506 10.442 12.8506 10.4327 12.8506ZM10.3395 8.29256C9.3986 8.29256 8.63471 9.0169 8.63471 9.90909C8.63471 10.7836 9.35202 11.4903 10.2743 11.5256C10.2836 11.5168 10.3581 11.5168 10.442 11.5256C11.3456 11.4815 12.0443 10.7748 12.0536 9.90909C12.0536 9.02574 11.2897 8.29256 10.3395 8.29256ZM10.4336 19.3689C9.31569 19.3689 8.1978 19.0951 7.33144 18.5385C6.51165 18.0174 6.03655 17.2754 6.03655 16.4803C6.03655 15.6942 6.50233 14.9345 7.33144 14.4133C9.07348 13.3179 11.803 13.3179 13.5357 14.4133C14.3555 14.9345 14.8306 15.6765 14.8306 16.4715C14.8306 17.2577 14.3648 18.0174 13.5357 18.5385C12.6694 19.0862 11.5515 19.3689 10.4336 19.3689ZM8.10464 15.5263C7.6668 15.8002 7.43391 16.1447 7.43391 16.4892C7.43391 16.8337 7.67612 17.1694 8.10464 17.4432C9.36227 18.247 11.4956 18.247 12.7532 17.4432C13.191 17.1694 13.4239 16.8248 13.4239 16.4803C13.4239 16.1358 13.1817 15.8002 12.7532 15.5263C11.5049 14.7225 9.37159 14.7313 8.10464 15.5263Z" fill="#7F7F7F"/>
</g>
</g>
</g>
<defs>
<clipPath id="clip0_113_6741">
<rect width="24" height="24" fill="white" transform="translate(0 0.0966797)"/>
</clipPath>
<clipPath id="clip1_113_6741">
<rect width="24" height="22" fill="white" transform="translate(-0.581787 0.368896)"/>
</clipPath>
<clipPath id="clip2_113_6741">
<rect width="25" height="23" fill="white" transform="translate(-1 0.0966797)"/>
</clipPath>
</defs>
</svg>
