<svg width="24" height="24" viewBox="0 0 24 24" fill="none" xmlns="http://www.w3.org/2000/svg">
<g clip-path="url(#clip0_113_6902)">
<g clip-path="url(#clip1_113_6902)">
<path d="M16.0221 6.1571H15.901C14.1403 6.1041 12.8268 4.81441 12.8268 3.22438C12.8268 1.59901 14.2242 0.282817 15.9289 0.282817C17.6337 0.282817 19.0311 1.60784 19.0311 3.22438C19.0322 3.98818 18.7197 4.7224 18.1598 5.27148C17.5999 5.82056 16.8365 6.14137 16.0314 6.16594C16.0314 6.1571 16.0314 6.1571 16.0221 6.1571ZM15.9289 1.59901C14.9881 1.59901 14.2242 2.32336 14.2242 3.21554C14.2242 4.09006 14.9415 4.79674 15.8637 4.83208C15.8731 4.82324 15.9476 4.82324 16.0314 4.83208C16.4725 4.8045 16.8851 4.6157 17.1824 4.30544C17.4796 3.99517 17.6383 3.58765 17.625 3.16867C17.6117 2.74969 17.4275 2.35193 17.1112 2.05916C16.7948 1.76638 16.371 1.60142 15.9289 1.59901ZM16.0305 12.6656C15.6672 12.6656 15.3039 12.6391 14.9405 12.5773C14.8499 12.5624 14.7633 12.5306 14.6857 12.4839C14.6081 12.4371 14.5409 12.3763 14.4881 12.3049C14.4353 12.2335 14.3979 12.1529 14.3781 12.0678C14.3582 11.9827 14.3562 11.8946 14.3723 11.8088C14.388 11.7229 14.4215 11.6408 14.4708 11.5671C14.5201 11.4935 14.5842 11.4299 14.6595 11.3798C14.7348 11.3297 14.8198 11.2943 14.9096 11.2754C14.9994 11.2566 15.0922 11.2547 15.1828 11.2699C16.3286 11.4554 17.5396 11.2523 18.3501 10.7399C18.788 10.4661 19.0208 10.1216 19.0208 9.77708C19.0208 9.43257 18.7786 9.0969 18.3501 8.82306C17.5396 8.31071 16.31 8.10754 15.1548 8.30188C14.7729 8.37255 14.4095 8.12521 14.3443 7.76303C14.2791 7.40086 14.5307 7.05635 14.9126 6.99452C16.4311 6.73835 18.0054 7.01219 19.1233 7.71887C19.9431 8.24004 20.4182 8.98206 20.4182 9.77708C20.4182 10.5633 19.9524 11.3141 19.1233 11.8441C18.2756 12.3741 17.1763 12.6656 16.0305 12.6656ZM4.81525 6.15534H4.79662C3.99291 6.13148 3.23051 5.81211 2.67068 5.26478C2.11086 4.71745 1.79752 3.98508 1.79695 3.22261C1.79695 1.59724 3.19431 0.272217 4.89909 0.272217C6.60388 0.272217 8.00124 1.59724 8.00124 3.21378C8.00124 4.81264 6.68772 6.10233 5.01088 6.15534L4.81525 5.49282L4.88046 6.15534H4.81525ZM4.90841 4.83031C4.9643 4.83031 5.01088 4.83031 5.06678 4.83914C5.89588 4.80381 6.62251 4.09713 6.62251 3.22261C6.62201 2.90676 6.52394 2.59796 6.34041 2.33437C6.15689 2.07078 5.89595 1.86395 5.58983 1.73942C5.28371 1.6149 4.94583 1.57814 4.61792 1.63369C4.29001 1.68923 3.98645 1.83465 3.74474 2.05198C3.50302 2.2693 3.33375 2.54902 3.25782 2.85655C3.18189 3.16409 3.20265 3.48599 3.31751 3.78247C3.43238 4.07895 3.63632 4.33703 3.90415 4.52482C4.17198 4.71261 4.49197 4.82188 4.82457 4.83914C4.83388 4.83031 4.87115 4.83031 4.90841 4.83031ZM4.80593 12.6656C3.6601 12.6656 2.56084 12.3741 1.7131 11.8441C0.893317 11.3229 0.418213 10.5721 0.418213 9.77708C0.418213 8.99089 0.893317 8.24004 1.7131 7.71887C2.83099 7.01219 4.40536 6.73835 5.92383 6.99452C6.30577 7.05635 6.5573 7.40086 6.49209 7.76303C6.42688 8.12521 6.06356 8.37255 5.68162 8.30188C4.52646 8.10754 3.3061 8.31071 2.48631 8.82306C2.04847 9.0969 1.81558 9.43257 1.81558 9.77708C1.81558 10.1216 2.05779 10.4661 2.48631 10.7399C3.29678 11.2523 4.50783 11.4554 5.65367 11.2699C6.03561 11.2081 6.39893 11.4554 6.46414 11.8088C6.52935 12.171 6.27782 12.5155 5.89588 12.5773C5.53256 12.6391 5.16925 12.6656 4.80593 12.6656ZM10.4327 12.754H10.3115C8.55087 12.701 7.23735 11.4113 7.23735 9.82124C7.23735 8.19588 8.63471 6.87968 10.3395 6.87968C12.0443 6.87968 13.4416 8.20471 13.4416 9.82124C13.4428 10.585 13.1303 11.3193 12.5704 11.8683C12.0104 12.4174 11.2471 12.7382 10.442 12.7628C10.442 12.754 10.442 12.754 10.4327 12.754ZM10.3395 8.19588C9.3986 8.19588 8.63471 8.92023 8.63471 9.81241C8.63471 10.6869 9.35202 11.3936 10.2743 11.4289C10.2836 11.4201 10.3581 11.4201 10.442 11.4289C11.3456 11.3848 12.0443 10.6781 12.0536 9.81241C12.0536 8.92906 11.2897 8.19588 10.3395 8.19588ZM10.4336 19.2722C9.31569 19.2722 8.1978 18.9984 7.33144 18.4419C6.51165 17.9207 6.03655 17.1787 6.03655 16.3837C6.03655 15.5975 6.50233 14.8378 7.33144 14.3166C9.07348 13.2213 11.803 13.2213 13.5357 14.3166C14.3555 14.8378 14.8306 15.5798 14.8306 16.3748C14.8306 17.161 14.3648 17.9207 13.5357 18.4419C12.6694 18.9895 11.5515 19.2722 10.4336 19.2722ZM8.10464 15.4296C7.6668 15.7035 7.43391 16.048 7.43391 16.3925C7.43391 16.737 7.67612 17.0727 8.10464 17.3465C9.36227 18.1504 11.4956 18.1504 12.7532 17.3465C13.191 17.0727 13.4239 16.7282 13.4239 16.3837C13.4239 16.0392 13.1817 15.7035 12.7532 15.4296C11.5049 14.6258 9.37159 14.6346 8.10464 15.4296Z" fill="#7F7F7F"/>
</g>
</g>
<defs>
<clipPath id="clip0_113_6902">
<rect width="24" height="24" fill="white"/>
</clipPath>
<clipPath id="clip1_113_6902">
<rect width="24" height="22" fill="white" transform="translate(-0.581787 0.272217)"/>
</clipPath>
</defs>
</svg>
