<svg width="24" height="24" viewBox="0 0 24 24" fill="none" xmlns="http://www.w3.org/2000/svg">
<g clip-path="url(#clip0_172_7180)">
<g clip-path="url(#clip1_172_7180)">
<path d="M16.0221 6.15686H15.901C14.1403 6.10386 12.8268 4.81416 12.8268 3.22413C12.8268 1.59877 14.2242 0.282573 15.9289 0.282573C17.6337 0.282573 19.0311 1.6076 19.0311 3.22413C19.0322 3.98793 18.7197 4.72215 18.1598 5.27124C17.5999 5.82032 16.8365 6.14113 16.0314 6.16569C16.0314 6.15686 16.0314 6.15686 16.0221 6.15686ZM15.9289 1.59877C14.9881 1.59877 14.2242 2.32311 14.2242 3.2153C14.2242 4.08982 14.9415 4.7965 15.8637 4.83183C15.8731 4.823 15.9476 4.823 16.0314 4.83183C16.4725 4.80425 16.8851 4.61546 17.1824 4.30519C17.4796 3.99493 17.6383 3.58741 17.625 3.16842C17.6117 2.74944 17.4275 2.35169 17.1112 2.05891C16.7948 1.76614 16.371 1.60118 15.9289 1.59877ZM16.0305 12.6654C15.6672 12.6654 15.3039 12.6389 14.9405 12.5771C14.8499 12.5621 14.7633 12.5304 14.6857 12.4836C14.6081 12.4369 14.5409 12.3761 14.4881 12.3047C14.4353 12.2333 14.3979 12.1527 14.3781 12.0676C14.3582 11.9824 14.3562 11.8944 14.3723 11.8085C14.388 11.7226 14.4215 11.6405 14.4708 11.5669C14.5201 11.4933 14.5842 11.4296 14.6595 11.3796C14.7348 11.3295 14.8198 11.294 14.9096 11.2752C14.9994 11.2563 15.0922 11.2545 15.1828 11.2697C16.3286 11.4552 17.5396 11.252 18.3501 10.7397C18.788 10.4658 19.0208 10.1213 19.0208 9.77683C19.0208 9.43232 18.7786 9.09665 18.3501 8.82281C17.5396 8.31047 16.31 8.1073 15.1548 8.30163C14.7729 8.3723 14.4095 8.12496 14.3443 7.76279C14.2791 7.40062 14.5307 7.05611 14.9126 6.99427C16.4311 6.7381 18.0054 7.01194 19.1233 7.71862C19.9431 8.2398 20.4182 8.98182 20.4182 9.77683C20.4182 10.563 19.9524 11.3139 19.1233 11.8439C18.2756 12.3739 17.1763 12.6654 16.0305 12.6654ZM4.81525 6.15509H4.79662C3.99291 6.13124 3.23051 5.81186 2.67068 5.26453C2.11086 4.7172 1.79752 3.98484 1.79695 3.22237C1.79695 1.597 3.19431 0.271973 4.89909 0.271973C6.60388 0.271973 8.00124 1.597 8.00124 3.21353C8.00124 4.8124 6.68772 6.10209 5.01088 6.15509L4.81525 5.49258L4.88046 6.15509H4.81525ZM4.90841 4.83006C4.9643 4.83006 5.01088 4.83006 5.06678 4.8389C5.89588 4.80356 6.62251 4.09688 6.62251 3.22237C6.62201 2.90651 6.52394 2.59771 6.34041 2.33413C6.15689 2.07054 5.89595 1.8637 5.58983 1.73918C5.28371 1.61465 4.94583 1.5779 4.61792 1.63344C4.29001 1.68899 3.98645 1.83441 3.74474 2.05173C3.50302 2.26906 3.33375 2.54877 3.25782 2.85631C3.18189 3.16385 3.20265 3.48574 3.31751 3.78223C3.43238 4.07871 3.63632 4.33678 3.90415 4.52457C4.17198 4.71236 4.49197 4.82164 4.82457 4.8389C4.83388 4.83006 4.87115 4.83006 4.90841 4.83006ZM4.80593 12.6654C3.6601 12.6654 2.56084 12.3739 1.7131 11.8439C0.893317 11.3227 0.418213 10.5718 0.418213 9.77683C0.418213 8.99065 0.893317 8.2398 1.7131 7.71862C2.83099 7.01194 4.40536 6.7381 5.92383 6.99427C6.30577 7.05611 6.5573 7.40062 6.49209 7.76279C6.42688 8.12496 6.06356 8.3723 5.68162 8.30163C4.52646 8.1073 3.3061 8.31047 2.48631 8.82281C2.04847 9.09665 1.81558 9.43232 1.81558 9.77683C1.81558 10.1213 2.05779 10.4658 2.48631 10.7397C3.29678 11.252 4.50783 11.4552 5.65367 11.2697C6.03561 11.2079 6.39893 11.4552 6.46414 11.8085C6.52935 12.1707 6.27782 12.5152 5.89588 12.5771C5.53256 12.6389 5.16925 12.6654 4.80593 12.6654ZM10.4327 12.7537H10.3115C8.55087 12.7007 7.23735 11.411 7.23735 9.821C7.23735 8.19563 8.63471 6.87944 10.3395 6.87944C12.0443 6.87944 13.4416 8.20447 13.4416 9.821C13.4428 10.5848 13.1303 11.319 12.5704 11.8681C12.0104 12.4172 11.2471 12.738 10.442 12.7626C10.442 12.7537 10.442 12.7537 10.4327 12.7537ZM10.3395 8.19563C9.3986 8.19563 8.63471 8.91998 8.63471 9.81217C8.63471 10.6867 9.35202 11.3934 10.2743 11.4287C10.2836 11.4199 10.3581 11.4199 10.442 11.4287C11.3456 11.3845 12.0443 10.6778 12.0536 9.81217C12.0536 8.92881 11.2897 8.19563 10.3395 8.19563ZM10.4336 19.272C9.31569 19.272 8.1978 18.9981 7.33144 18.4416C6.51165 17.9204 6.03655 17.1784 6.03655 16.3834C6.03655 15.5972 6.50233 14.8376 7.33144 14.3164C9.07348 13.221 11.803 13.221 13.5357 14.3164C14.3555 14.8376 14.8306 15.5796 14.8306 16.3746C14.8306 17.1608 14.3648 17.9204 13.5357 18.4416C12.6694 18.9893 11.5515 19.272 10.4336 19.272ZM8.10464 15.4294C7.6668 15.7032 7.43391 16.0477 7.43391 16.3922C7.43391 16.7368 7.67612 17.0724 8.10464 17.3463C9.36227 18.1501 11.4956 18.1501 12.7532 17.3463C13.191 17.0724 13.4239 16.7279 13.4239 16.3834C13.4239 16.0389 13.1817 15.7032 12.7532 15.4294C11.5049 14.6255 9.37159 14.6344 8.10464 15.4294Z" fill="#CCCCCC"/>
</g>
</g>
<defs>
<clipPath id="clip0_172_7180">
<rect width="24" height="24" fill="white"/>
</clipPath>
<clipPath id="clip1_172_7180">
<rect width="24" height="22" fill="white" transform="translate(-0.581787 0.271973)"/>
</clipPath>
</defs>
</svg>
