<svg width="24" height="25" viewBox="0 0 24 25" fill="none" xmlns="http://www.w3.org/2000/svg">
<g clip-path="url(#clip0_172_7210)">
<path d="M14.4182 21.3128H8.41821C2.98821 21.3128 0.668213 19.1862 0.668213 14.2087V8.70866C0.668213 3.73116 2.98821 1.60449 8.41821 1.60449H13.4182C13.8282 1.60449 14.1682 1.91616 14.1682 2.29199C14.1682 2.66783 13.8282 2.97949 13.4182 2.97949H8.41821C3.80821 2.97949 2.16821 4.48283 2.16821 8.70866V14.2087C2.16821 18.4345 3.80821 19.9378 8.41821 19.9378H14.4182C19.0282 19.9378 20.6682 18.4345 20.6682 14.2087V9.62533C20.6682 9.24949 21.0082 8.93783 21.4182 8.93783C21.8282 8.93783 22.1682 9.24949 22.1682 9.62533V14.2087C22.1682 19.1862 19.8482 21.3128 14.4182 21.3128Z" fill="#CCCCCC"/>
<path d="M21.4182 10.311H17.4182C13.9982 10.311 12.6682 9.09182 12.6682 5.95682V2.29015C12.6682 2.01515 12.8482 1.75848 13.1282 1.65765C13.4082 1.54765 13.7282 1.61182 13.9482 1.80432L21.9482 9.13765C22.0525 9.23397 22.1234 9.35638 22.152 9.48952C22.1806 9.62265 22.1657 9.76057 22.109 9.88594C22.0524 10.0113 21.9566 10.1185 21.8337 10.1942C21.7108 10.2698 21.5662 10.3104 21.4182 10.311ZM14.1682 3.94932V5.95682C14.1682 8.32182 14.8382 8.93599 17.4182 8.93599H19.6082L14.1682 3.94932Z" fill="#CCCCCC"/>
</g>
<defs>
<clipPath id="clip0_172_7210">
<rect width="24" height="24" fill="white" transform="translate(0 0.186523)"/>
</clipPath>
</defs>
</svg>
