<svg width="24" height="24" viewBox="0 0 24 24" fill="none" xmlns="http://www.w3.org/2000/svg">
<g clip-path="url(#clip0_113_6918)">
<path d="M14.4182 21.1264H8.41821C2.98821 21.1264 0.668213 18.9998 0.668213 14.0223V8.52226C0.668213 3.54476 2.98821 1.41809 8.41821 1.41809H13.4182C13.8282 1.41809 14.1682 1.72976 14.1682 2.10559C14.1682 2.48142 13.8282 2.79309 13.4182 2.79309H8.41821C3.80821 2.79309 2.16821 4.29642 2.16821 8.52226V14.0223C2.16821 18.2481 3.80821 19.7514 8.41821 19.7514H14.4182C19.0282 19.7514 20.6682 18.2481 20.6682 14.0223V9.43893C20.6682 9.06309 21.0082 8.75143 21.4182 8.75143C21.8282 8.75143 22.1682 9.06309 22.1682 9.43893V14.0223C22.1682 18.9998 19.8482 21.1264 14.4182 21.1264Z" fill="#7F7F7F"/>
<path d="M21.4182 10.1246H17.4182C13.9982 10.1246 12.6682 8.90542 12.6682 5.77042V2.10375C12.6682 1.82875 12.8482 1.57208 13.1282 1.47125C13.4082 1.36125 13.7282 1.42542 13.9482 1.61792L21.9482 8.95125C22.0525 9.04757 22.1234 9.16998 22.152 9.30311C22.1806 9.43625 22.1657 9.57417 22.109 9.69954C22.0524 9.82491 21.9566 9.93214 21.8337 10.0078C21.7108 10.0834 21.5662 10.124 21.4182 10.1246ZM14.1682 3.76292V5.77042C14.1682 8.13542 14.8382 8.74958 17.4182 8.74958H19.6082L14.1682 3.76292Z" fill="#7F7F7F"/>
</g>
<defs>
<clipPath id="clip0_113_6918">
<rect width="24" height="24" fill="white"/>
</clipPath>
</defs>
</svg>
