<svg width="24" height="25" viewBox="0 0 24 25" fill="none" xmlns="http://www.w3.org/2000/svg">
<g clip-path="url(#clip0_113_6757)">
<path d="M14.4182 21.2231H8.41821C2.98821 21.2231 0.668213 19.0964 0.668213 14.1189V8.61894C0.668213 3.64144 2.98821 1.51477 8.41821 1.51477H13.4182C13.8282 1.51477 14.1682 1.82644 14.1682 2.20227C14.1682 2.5781 13.8282 2.88977 13.4182 2.88977H8.41821C3.80821 2.88977 2.16821 4.3931 2.16821 8.61894V14.1189C2.16821 18.3448 3.80821 19.8481 8.41821 19.8481H14.4182C19.0282 19.8481 20.6682 18.3448 20.6682 14.1189V9.53561C20.6682 9.15977 21.0082 8.8481 21.4182 8.8481C21.8282 8.8481 22.1682 9.15977 22.1682 9.53561V14.1189C22.1682 19.0964 19.8482 21.2231 14.4182 21.2231Z" fill="#7F7F7F"/>
<path d="M21.4182 10.2213H17.4182C13.9982 10.2213 12.6682 9.0021 12.6682 5.8671V2.20043C12.6682 1.92543 12.8482 1.66876 13.1282 1.56793C13.4082 1.45793 13.7282 1.5221 13.9482 1.7146L21.9482 9.04793C22.0525 9.14425 22.1234 9.26666 22.152 9.39979C22.1806 9.53293 22.1657 9.67085 22.109 9.79622C22.0524 9.92159 21.9566 10.0288 21.8337 10.1044C21.7108 10.1801 21.5662 10.2207 21.4182 10.2213ZM14.1682 3.8596V5.8671C14.1682 8.2321 14.8382 8.84626 17.4182 8.84626H19.6082L14.1682 3.8596Z" fill="#7F7F7F"/>
</g>
<defs>
<clipPath id="clip0_113_6757">
<rect width="24" height="24" fill="white" transform="translate(0 0.0966797)"/>
</clipPath>
</defs>
</svg>
