<svg width="25" height="25" viewBox="0 0 25 25" fill="none" xmlns="http://www.w3.org/2000/svg">
<g clip-path="url(#clip0_178_8054)">
<g clip-path="url(#clip1_178_8054)">
<g clip-path="url(#clip2_178_8054)">
<path d="M16.5221 6.6571H16.401C14.6403 6.6041 13.3268 5.31441 13.3268 3.72438C13.3268 2.09901 14.7242 0.782817 16.4289 0.782817C18.1337 0.782817 19.5311 2.10784 19.5311 3.72438C19.5322 4.48818 19.2197 5.2224 18.6598 5.77148C18.0999 6.32056 17.3365 6.64137 16.5314 6.66594C16.5314 6.6571 16.5314 6.6571 16.5221 6.6571ZM16.4289 2.09901C15.4881 2.09901 14.7242 2.82336 14.7242 3.71554C14.7242 4.59006 15.4415 5.29674 16.3637 5.33208C16.3731 5.32324 16.4476 5.32324 16.5314 5.33208C16.9725 5.3045 17.3851 5.1157 17.6824 4.80544C17.9796 4.49517 18.1383 4.08765 18.125 3.66867C18.1117 3.24969 17.9275 2.85193 17.6112 2.55916C17.2948 2.26638 16.871 2.10142 16.4289 2.09901ZM16.5305 13.1656C16.1672 13.1656 15.8039 13.1391 15.4405 13.0773C15.3499 13.0624 15.2633 13.0306 15.1857 12.9839C15.1081 12.9371 15.0409 12.8763 14.9881 12.8049C14.9353 12.7335 14.8979 12.6529 14.8781 12.5678C14.8582 12.4827 14.8562 12.3946 14.8723 12.3088C14.888 12.2229 14.9215 12.1408 14.9708 12.0671C15.0201 11.9935 15.0842 11.9299 15.1595 11.8798C15.2348 11.8297 15.3198 11.7943 15.4096 11.7754C15.4994 11.7566 15.5922 11.7547 15.6828 11.7699C16.8286 11.9554 18.0396 11.7523 18.8501 11.2399C19.288 10.9661 19.5208 10.6216 19.5208 10.2771C19.5208 9.93257 19.2786 9.5969 18.8501 9.32306C18.0396 8.81071 16.81 8.60754 15.6548 8.80188C15.2729 8.87255 14.9095 8.62521 14.8443 8.26303C14.7791 7.90086 15.0307 7.55635 15.4126 7.49452C16.9311 7.23835 18.5054 7.51219 19.6233 8.21887C20.4431 8.74004 20.9182 9.48206 20.9182 10.2771C20.9182 11.0633 20.4524 11.8141 19.6233 12.3441C18.7756 12.8741 17.6763 13.1656 16.5305 13.1656ZM5.31525 6.65534H5.29662C4.49291 6.63148 3.73051 6.31211 3.17068 5.76478C2.61086 5.21745 2.29752 4.48508 2.29695 3.72261C2.29695 2.09724 3.69431 0.772217 5.39909 0.772217C7.10388 0.772217 8.50124 2.09724 8.50124 3.71378C8.50124 5.31264 7.18772 6.60233 5.51088 6.65534L5.31525 5.99282L5.38046 6.65534H5.31525ZM5.40841 5.33031C5.4643 5.33031 5.51088 5.33031 5.56678 5.33914C6.39588 5.30381 7.12251 4.59713 7.12251 3.72261C7.12201 3.40676 7.02394 3.09796 6.84041 2.83437C6.65689 2.57078 6.39595 2.36395 6.08983 2.23942C5.78371 2.1149 5.44583 2.07814 5.11792 2.13369C4.79001 2.18923 4.48645 2.33465 4.24474 2.55198C4.00302 2.7693 3.83375 3.04902 3.75782 3.35655C3.68189 3.66409 3.70265 3.98599 3.81751 4.28247C3.93238 4.57895 4.13632 4.83703 4.40415 5.02482C4.67198 5.21261 4.99197 5.32188 5.32457 5.33914C5.33388 5.33031 5.37115 5.33031 5.40841 5.33031ZM5.30593 13.1656C4.1601 13.1656 3.06084 12.8741 2.2131 12.3441C1.39332 11.8229 0.918213 11.0721 0.918213 10.2771C0.918213 9.49089 1.39332 8.74004 2.2131 8.21887C3.33099 7.51219 4.90536 7.23835 6.42383 7.49452C6.80577 7.55635 7.0573 7.90086 6.99209 8.26303C6.92688 8.62521 6.56356 8.87255 6.18162 8.80188C5.02646 8.60754 3.8061 8.81071 2.98631 9.32306C2.54847 9.5969 2.31558 9.93257 2.31558 10.2771C2.31558 10.6216 2.55779 10.9661 2.98631 11.2399C3.79678 11.7523 5.00783 11.9554 6.15367 11.7699C6.53561 11.7081 6.89893 11.9554 6.96414 12.3088C7.02935 12.671 6.77782 13.0155 6.39588 13.0773C6.03256 13.1391 5.66925 13.1656 5.30593 13.1656ZM10.9327 13.254H10.8115C9.05087 13.201 7.73735 11.9113 7.73735 10.3212C7.73735 8.69588 9.13471 7.37968 10.8395 7.37968C12.5443 7.37968 13.9416 8.70471 13.9416 10.3212C13.9428 11.085 13.6303 11.8193 13.0704 12.3683C12.5104 12.9174 11.7471 13.2382 10.942 13.2628C10.942 13.254 10.942 13.254 10.9327 13.254ZM10.8395 8.69588C9.8986 8.69588 9.13471 9.42023 9.13471 10.3124C9.13471 11.1869 9.85202 11.8936 10.7743 11.9289C10.7836 11.9201 10.8581 11.9201 10.942 11.9289C11.8456 11.8848 12.5443 11.1781 12.5536 10.3124C12.5536 9.42906 11.7897 8.69588 10.8395 8.69588ZM10.9336 19.7722C9.81569 19.7722 8.6978 19.4984 7.83144 18.9419C7.01165 18.4207 6.53655 17.6787 6.53655 16.8837C6.53655 16.0975 7.00233 15.3378 7.83144 14.8166C9.57348 13.7213 12.303 13.7213 14.0357 14.8166C14.8555 15.3378 15.3306 16.0798 15.3306 16.8748C15.3306 17.661 14.8648 18.4207 14.0357 18.9419C13.1694 19.4895 12.0515 19.7722 10.9336 19.7722ZM8.60464 15.9296C8.1668 16.2035 7.93391 16.548 7.93391 16.8925C7.93391 17.237 8.17612 17.5727 8.60464 17.8465C9.86227 18.6504 11.9956 18.6504 13.2532 17.8465C13.691 17.5727 13.9239 17.2282 13.9239 16.8837C13.9239 16.5392 13.6817 16.2035 13.2532 15.9296C12.0049 15.1258 9.87159 15.1346 8.60464 15.9296Z" fill="#CCCCCC"/>
</g>
</g>
</g>
<defs>
<clipPath id="clip0_178_8054">
<rect width="24" height="24" fill="white" transform="translate(0.5 0.5)"/>
</clipPath>
<clipPath id="clip1_178_8054">
<rect width="24" height="22" fill="white" transform="translate(-0.0817871 0.772217)"/>
</clipPath>
<clipPath id="clip2_178_8054">
<rect width="25" height="23" fill="white" transform="translate(-0.5 0.5)"/>
</clipPath>
</defs>
</svg>
