<svg width="25" height="25" viewBox="0 0 25 25" fill="none" xmlns="http://www.w3.org/2000/svg">
<g clip-path="url(#clip0_172_6771)">
<path d="M14.9182 21.6263H8.91821C3.48821 21.6263 1.16821 19.4996 1.16821 14.5221V9.02214C1.16821 4.04464 3.48821 1.91797 8.91821 1.91797H13.9182C14.3282 1.91797 14.6682 2.22964 14.6682 2.60547C14.6682 2.9813 14.3282 3.29297 13.9182 3.29297H8.91821C4.30821 3.29297 2.66821 4.7963 2.66821 9.02214V14.5221C2.66821 18.748 4.30821 20.2513 8.91821 20.2513H14.9182C19.5282 20.2513 21.1682 18.748 21.1682 14.5221V9.9388C21.1682 9.56297 21.5082 9.2513 21.9182 9.2513C22.3282 9.2513 22.6682 9.56297 22.6682 9.9388V14.5221C22.6682 19.4996 20.3482 21.6263 14.9182 21.6263Z" fill="#CCCCCC" fill-opacity="0.8"/>
<path d="M21.9182 10.6245H17.9182C14.4982 10.6245 13.1682 9.40529 13.1682 6.27029V2.60363C13.1682 2.32863 13.3482 2.07196 13.6282 1.97113C13.9082 1.86113 14.2282 1.92529 14.4482 2.11779L22.4482 9.45113C22.5525 9.54744 22.6234 9.66986 22.652 9.80299C22.6806 9.93613 22.6657 10.074 22.609 10.1994C22.5524 10.3248 22.4566 10.432 22.3337 10.5076C22.2108 10.5833 22.0662 10.6239 21.9182 10.6245ZM14.6682 4.26279V6.27029C14.6682 8.63529 15.3382 9.24946 17.9182 9.24946H20.1082L14.6682 4.26279Z" fill="#CCCCCC" fill-opacity="0.8"/>
</g>
<defs>
<clipPath id="clip0_172_6771">
<rect width="24" height="24" fill="white" transform="translate(0.5 0.5)"/>
</clipPath>
</defs>
</svg>
