<svg width="25" height="23" viewBox="0 0 25 23" fill="none" xmlns="http://www.w3.org/2000/svg">
<path d="M15.5 21.5409H9.5C4.07 21.5409 1.75 19.4142 1.75 14.4367V8.93669C1.75 3.95919 4.07 1.83252 9.5 1.83252H14.5C14.91 1.83252 15.25 2.14419 15.25 2.52002C15.25 2.89585 14.91 3.20752 14.5 3.20752H9.5C4.89 3.20752 3.25 4.71085 3.25 8.93669V14.4367C3.25 18.6625 4.89 20.1659 9.5 20.1659H15.5C20.11 20.1659 21.75 18.6625 21.75 14.4367V9.85335C21.75 9.47752 22.09 9.16585 22.5 9.16585C22.91 9.16585 23.25 9.47752 23.25 9.85335V14.4367C23.25 19.4142 20.93 21.5409 15.5 21.5409Z" fill="white"/>
<path d="M22.5 10.539H18.5C15.08 10.539 13.75 9.31985 13.75 6.18485V2.51818C13.75 2.24318 13.93 1.98651 14.21 1.88568C14.49 1.77568 14.81 1.83984 15.03 2.03234L23.03 9.36568C23.1343 9.46199 23.2052 9.58441 23.2338 9.71754C23.2624 9.85068 23.2474 9.98859 23.1908 10.114C23.1342 10.2393 23.0384 10.3466 22.9155 10.4222C22.7926 10.4978 22.648 10.5385 22.5 10.539V10.539ZM15.25 4.17735V6.18485C15.25 8.54985 15.92 9.16401 18.5 9.16401H20.69L15.25 4.17735Z" fill="white"/>
</svg>
