<svg width="26" height="24" viewBox="0 0 26 24" fill="none" xmlns="http://www.w3.org/2000/svg">
<g clip-path="url(#clip0_178_8062)">
<path d="M15.9737 12.4231C16.9132 11.7161 17.599 10.7465 17.9356 9.64924C18.2722 8.55201 18.2429 7.3817 17.8518 6.30114C17.4607 5.22057 16.7272 4.28348 15.7533 3.62024C14.7795 2.957 13.6137 2.60059 12.4183 2.60059C11.2228 2.60059 10.057 2.957 9.0832 3.62024C8.10936 4.28348 7.37585 5.22057 6.98472 6.30114C6.5936 7.3817 6.5643 8.55201 6.90092 9.64924C7.23753 10.7465 7.92331 11.7161 8.86285 12.4231C7.25293 13.0401 5.84821 14.0634 4.79846 15.3839C3.74871 16.7044 3.09327 18.2727 2.90202 19.9215C2.88818 20.0418 2.89926 20.1636 2.93463 20.2799C2.97 20.3962 3.02897 20.5047 3.10817 20.5992C3.26812 20.79 3.50077 20.9122 3.75494 20.939C4.0091 20.9657 4.26397 20.8948 4.46346 20.7418C4.66295 20.5888 4.79073 20.3662 4.81869 20.1231C5.02912 18.3312 5.92239 16.6763 7.32781 15.4745C8.73324 14.2727 10.5523 13.6084 12.4374 13.6084C14.3226 13.6084 16.1416 14.2727 17.5471 15.4745C18.9525 16.6763 19.8458 18.3312 20.0562 20.1231C20.0822 20.3484 20.1946 20.5564 20.3716 20.7071C20.5486 20.8577 20.7776 20.9403 21.0145 20.939H21.1199C21.3711 20.9113 21.6008 20.7898 21.7587 20.6009C21.9167 20.4121 21.9902 20.1711 21.9633 19.9306C21.7711 18.2771 21.1122 16.7049 20.057 15.3823C19.0019 14.0598 17.5903 13.0368 15.9737 12.4231ZM12.4183 11.7723C11.6601 11.7723 10.919 11.5572 10.2886 11.1543C9.6582 10.7514 9.16687 10.1788 8.87673 9.5088C8.5866 8.8388 8.51068 8.10156 8.65859 7.39029C8.8065 6.67903 9.17159 6.02569 9.70769 5.5129C10.2438 5.00011 10.9268 4.65089 11.6704 4.50941C12.414 4.36793 13.1848 4.44054 13.8852 4.71807C14.5857 4.99559 15.1844 5.46555 15.6056 6.06853C16.0268 6.67151 16.2516 7.38043 16.2516 8.10562C16.2516 9.07808 15.8477 10.0107 15.1288 10.6983C14.41 11.386 13.4349 11.7723 12.4183 11.7723Z" fill="white"/>
</g>
<defs>
<clipPath id="clip0_178_8062">
<rect width="25" height="23" fill="white" transform="translate(0.5 0.5)"/>
</clipPath>
</defs>
</svg>
