<svg width="25" height="24" viewBox="0 0 25 24" fill="none" xmlns="http://www.w3.org/2000/svg">
<g clip-path="url(#clip0_342_998)">
<path d="M17.0219 6.6571H16.9008C15.1401 6.6041 13.8266 5.31441 13.8266 3.72438C13.8266 2.09901 15.2239 0.782817 16.9287 0.782817C18.6335 0.782817 20.0309 2.10784 20.0309 3.72438C20.032 4.48818 19.7195 5.2224 19.1596 5.77148C18.5996 6.32056 17.8363 6.64137 17.0312 6.66594C17.0312 6.6571 17.0312 6.6571 17.0219 6.6571V6.6571ZM16.9287 2.09901C15.9878 2.09901 15.2239 2.82336 15.2239 3.71554C15.2239 4.59006 15.9412 5.29674 16.8635 5.33208C16.8728 5.32324 16.9473 5.32324 17.0312 5.33208C17.4723 5.3045 17.8849 5.1157 18.1821 4.80544C18.4794 4.49517 18.638 4.08765 18.6248 3.66867C18.6115 3.24969 18.4273 2.85193 18.1109 2.55916C17.7946 2.26638 17.3708 2.10142 16.9287 2.09901V2.09901ZM17.0302 13.1656C16.6669 13.1656 16.3036 13.1391 15.9403 13.0773C15.8497 13.0624 15.7631 13.0306 15.6855 12.9839C15.6078 12.9371 15.5407 12.8763 15.4879 12.8049C15.4351 12.7335 15.3977 12.6529 15.3778 12.5678C15.3579 12.4827 15.356 12.3946 15.372 12.3088C15.3878 12.2229 15.4213 12.1408 15.4706 12.0671C15.5199 11.9935 15.584 11.9299 15.6593 11.8798C15.7346 11.8297 15.8196 11.7943 15.9094 11.7754C15.9991 11.7566 16.092 11.7547 16.1825 11.7699C17.3284 11.9554 18.5394 11.7523 19.3499 11.2399C19.7877 10.9661 20.0206 10.6216 20.0206 10.2771C20.0206 9.93257 19.7784 9.5969 19.3499 9.32306C18.5394 8.81071 17.3097 8.60754 16.1546 8.80188C15.7726 8.87255 15.4093 8.62521 15.3441 8.26303C15.2789 7.90086 15.5304 7.55635 15.9124 7.49452C17.4308 7.23835 19.0052 7.51219 20.1231 8.21887C20.9429 8.74004 21.418 9.48206 21.418 10.2771C21.418 11.0633 20.9522 11.8141 20.1231 12.3441C19.2753 12.8741 18.1761 13.1656 17.0302 13.1656V13.1656ZM5.81501 6.65534H5.79637C4.99267 6.63148 4.23027 6.31211 3.67044 5.76478C3.11062 5.21745 2.79727 4.48508 2.7967 3.72261C2.7967 2.09724 4.19406 0.772217 5.89885 0.772217C7.60363 0.772217 9.001 2.09724 9.001 3.71378C9.001 5.31264 7.68747 6.60233 6.01064 6.65534L5.81501 5.99282L5.88022 6.65534H5.81501V6.65534ZM5.90816 5.33031C5.96406 5.33031 6.01064 5.33031 6.06653 5.33914C6.89563 5.30381 7.62226 4.59713 7.62226 3.72261C7.62177 3.40676 7.5237 3.09796 7.34017 2.83437C7.15664 2.57078 6.8957 2.36395 6.58958 2.23942C6.28347 2.1149 5.94558 2.07814 5.61768 2.13369C5.28977 2.18923 4.98621 2.33465 4.74449 2.55198C4.50278 2.7693 4.3335 3.04902 4.25758 3.35655C4.18165 3.66409 4.2024 3.98599 4.31727 4.28247C4.43213 4.57895 4.63608 4.83703 4.90391 5.02482C5.17174 5.21261 5.49172 5.32188 5.82432 5.33914C5.83364 5.33031 5.8709 5.33031 5.90816 5.33031ZM5.80569 13.1656C4.65985 13.1656 3.56059 12.8741 2.71286 12.3441C1.89307 11.8229 1.41797 11.0721 1.41797 10.2771C1.41797 9.49089 1.89307 8.74004 2.71286 8.21887C3.83075 7.51219 5.40511 7.23835 6.92358 7.49452C7.30553 7.55635 7.55705 7.90086 7.49184 8.26303C7.42663 8.62521 7.06332 8.87255 6.68137 8.80188C5.52622 8.60754 4.30585 8.81071 3.48607 9.32306C3.04823 9.5969 2.81533 9.93257 2.81533 10.2771C2.81533 10.6216 3.05754 10.9661 3.48607 11.2399C4.29654 11.7523 5.50759 11.9554 6.65342 11.7699C7.03537 11.7081 7.39869 11.9554 7.4639 12.3088C7.52911 12.671 7.27758 13.0155 6.89563 13.0773C6.53232 13.1391 6.16901 13.1656 5.80569 13.1656V13.1656ZM11.4324 13.254H11.3113C9.55063 13.201 8.2371 11.9113 8.2371 10.3212C8.2371 8.69588 9.63447 7.37968 11.3393 7.37968C13.044 7.37968 14.4414 8.70471 14.4414 10.3212C14.4425 11.085 14.13 11.8193 13.5701 12.3683C13.0102 12.9174 12.2468 13.2382 11.4417 13.2628C11.4417 13.254 11.4417 13.254 11.4324 13.254ZM11.3393 8.69588C10.3984 8.69588 9.63447 9.42022 9.63447 10.3124C9.63447 11.1869 10.3518 11.8936 11.274 11.9289C11.2834 11.9201 11.3579 11.9201 11.4417 11.9289C12.3454 11.8848 13.044 11.1781 13.0533 10.3124C13.0533 9.42906 12.2895 8.69588 11.3393 8.69588ZM11.4333 19.7722C10.3154 19.7722 9.19756 19.4984 8.33119 18.9419C7.51141 18.4207 7.0363 17.6787 7.0363 16.8837C7.0363 16.0975 7.50209 15.3378 8.33119 14.8166C10.0732 13.7213 12.8028 13.7213 14.5355 14.8166C15.3553 15.3378 15.8304 16.0798 15.8304 16.8748C15.8304 17.661 15.3646 18.4207 14.5355 18.9419C13.6691 19.4895 12.5512 19.7722 11.4333 19.7722ZM9.1044 15.9296C8.66656 16.2035 8.43367 16.548 8.43367 16.8925C8.43367 17.237 8.67588 17.5727 9.1044 17.8465C10.362 18.6504 12.4953 18.6504 13.753 17.8465C14.1908 17.5727 14.4237 17.2282 14.4237 16.8837C14.4237 16.5392 14.1815 16.2035 13.753 15.9296C12.5047 15.1258 10.3713 15.1346 9.1044 15.9296Z" fill="#CCCCCC"/>
</g>
<defs>
<clipPath id="clip0_342_998">
<rect width="25" height="23" fill="white" transform="translate(0 0.5)"/>
</clipPath>
</defs>
</svg>
