<svg width="27" height="25" viewBox="0 0 27 25" fill="none" xmlns="http://www.w3.org/2000/svg">
<g clip-path="url(#clip0_172_7200)">
<g clip-path="url(#clip1_172_7200)">
<path d="M12.5217 1.22998V24.1865" stroke="white" stroke-width="2" stroke-linecap="round" stroke-linejoin="round"/>
<path d="M17.7391 5.40381H9.91304C8.94442 5.40381 8.01548 5.78859 7.33056 6.47351C6.64565 7.15842 6.26086 8.08737 6.26086 9.05598C6.26086 10.0246 6.64565 10.9535 7.33056 11.6385C8.01548 12.3234 8.94442 12.7082 9.91304 12.7082H15.1304C16.099 12.7082 17.028 13.0929 17.7129 13.7779C18.3978 14.4628 18.7826 15.3917 18.7826 16.3603C18.7826 17.3289 18.3978 18.2579 17.7129 18.9428C17.028 19.6277 16.099 20.0125 15.1304 20.0125H6.26086" stroke="white" stroke-width="2" stroke-linecap="round" stroke-linejoin="round"/>
</g>
</g>
<defs>
<clipPath id="clip0_172_7200">
<rect width="26.087" height="24" fill="white" transform="translate(0 0.186523)"/>
</clipPath>
<clipPath id="clip1_172_7200">
<rect width="25.0435" height="25.0435" fill="white" transform="translate(0 0.186523)"/>
</clipPath>
</defs>
</svg>
