<svg width="25" height="23" viewBox="0 0 25 23" fill="none" xmlns="http://www.w3.org/2000/svg">
<g clip-path="url(#clip0_113_6910)">
<path d="M15.4737 11.923C16.4132 11.2159 17.099 10.2463 17.4356 9.14912C17.7722 8.05188 17.7429 6.88158 17.3518 5.80101C16.9607 4.72045 16.2272 3.78336 15.2533 3.12012C14.2795 2.45688 13.1137 2.10046 11.9183 2.10046C10.7228 2.10046 9.55705 2.45688 8.5832 3.12012C7.60936 3.78336 6.87585 4.72045 6.48472 5.80101C6.0936 6.88158 6.0643 8.05188 6.40092 9.14912C6.73753 10.2463 7.42331 11.2159 8.36285 11.923C6.75293 12.54 5.34821 13.5632 4.29846 14.8838C3.24871 16.2043 2.59327 17.7725 2.40202 19.4213C2.38818 19.5417 2.39926 19.6635 2.43463 19.7798C2.47 19.8961 2.52897 20.0046 2.60817 20.0991C2.76812 20.2899 3.00077 20.4121 3.25494 20.4388C3.5091 20.4656 3.76397 20.3946 3.96346 20.2416C4.16295 20.0887 4.29073 19.8661 4.31869 19.623C4.52912 17.8311 5.42239 16.1762 6.82781 14.9744C8.23324 13.7726 10.0523 13.1083 11.9374 13.1083C13.8226 13.1083 15.6416 13.7726 17.0471 14.9744C18.4525 16.1762 19.3458 17.8311 19.5562 19.623C19.5822 19.8482 19.6946 20.0563 19.8716 20.2069C20.0486 20.3576 20.2776 20.4402 20.5145 20.4388H20.6199C20.8711 20.4112 21.1008 20.2897 21.2587 20.1008C21.4167 19.9119 21.4902 19.671 21.4633 19.4305C21.2711 17.777 20.6122 16.2047 19.557 14.8822C18.5019 13.5596 17.0903 12.5367 15.4737 11.923ZM11.9183 11.2722C11.1601 11.2722 10.419 11.0571 9.78859 10.6542C9.1582 10.2513 8.66687 9.67867 8.37673 9.00868C8.0866 8.33868 8.01068 7.60143 8.15859 6.89017C8.3065 6.17891 8.67159 5.52557 9.20769 5.01278C9.7438 4.49998 10.4268 4.15077 11.1704 4.00929C11.914 3.86781 12.6848 3.94042 13.3852 4.21794C14.0857 4.49546 14.6844 4.96543 15.1056 5.56841C15.5268 6.17139 15.7516 6.8803 15.7516 7.6055C15.7516 8.57796 15.3477 9.51059 14.6288 10.1982C13.91 10.8859 12.9349 11.2722 11.9183 11.2722Z" fill="#D1D1D1"/>
</g>
<defs>
<clipPath id="clip0_113_6910">
<rect width="25" height="23" fill="white"/>
</clipPath>
</defs>
</svg>
