<svg width="25" height="24" viewBox="0 0 25 24" fill="none" xmlns="http://www.w3.org/2000/svg">
<g clip-path="url(#clip0_113_6749)">
<path d="M15.4737 12.0197C16.4132 11.3126 17.099 10.343 17.4356 9.2458C17.7722 8.14856 17.7429 6.97826 17.3518 5.89769C16.9607 4.81713 16.2272 3.88004 15.2533 3.2168C14.2795 2.55356 13.1137 2.19714 11.9183 2.19714C10.7228 2.19714 9.55705 2.55356 8.5832 3.2168C7.60936 3.88004 6.87585 4.81713 6.48472 5.89769C6.0936 6.97826 6.0643 8.14856 6.40092 9.2458C6.73753 10.343 7.42331 11.3126 8.36285 12.0197C6.75293 12.6366 5.34821 13.6599 4.29846 14.9804C3.24871 16.301 2.59327 17.8692 2.40202 19.518C2.38818 19.6384 2.39926 19.7602 2.43463 19.8765C2.47 19.9928 2.52897 20.1012 2.60817 20.1957C2.76812 20.3865 3.00077 20.5088 3.25494 20.5355C3.5091 20.5623 3.76397 20.4913 3.96346 20.3383C4.16295 20.1853 4.29073 19.9628 4.31869 19.7197C4.52912 17.9278 5.42239 16.2728 6.82781 15.0711C8.23324 13.8693 10.0523 13.205 11.9374 13.205C13.8226 13.205 15.6416 13.8693 17.0471 15.0711C18.4525 16.2728 19.3458 17.9278 19.5562 19.7197C19.5822 19.9449 19.6946 20.153 19.8716 20.3036C20.0486 20.4543 20.2776 20.5369 20.5145 20.5355H20.6199C20.8711 20.5079 21.1008 20.3864 21.2587 20.1975C21.4167 20.0086 21.4902 19.7677 21.4633 19.5272C21.2711 17.8737 20.6122 16.3014 19.557 14.9789C18.5019 13.6563 17.0903 12.6334 15.4737 12.0197ZM11.9183 11.3688C11.1601 11.3688 10.419 11.1538 9.78859 10.7509C9.1582 10.348 8.66687 9.77535 8.37673 9.10535C8.0866 8.43536 8.01068 7.69811 8.15859 6.98685C8.3065 6.27559 8.67159 5.62225 9.20769 5.10946C9.7438 4.59666 10.4268 4.24745 11.1704 4.10597C11.914 3.96449 12.6848 4.0371 13.3852 4.31462C14.0857 4.59214 14.6844 5.06211 15.1056 5.66509C15.5268 6.26807 15.7516 6.97698 15.7516 7.70218C15.7516 8.67464 15.3477 9.60727 14.6288 10.2949C13.91 10.9825 12.9349 11.3688 11.9183 11.3688Z" fill="#D1D1D1"/>
</g>
<defs>
<clipPath id="clip0_113_6749">
<rect width="25" height="23" fill="white" transform="translate(0 0.0966797)"/>
</clipPath>
</defs>
</svg>
