<svg width="25" height="25" viewBox="0 0 25 25" fill="none" xmlns="http://www.w3.org/2000/svg">
<path d="M11.5 2.5C9.52219 2.5 7.58879 3.08649 5.9443 4.1853C4.29981 5.28412 3.01809 6.8459 2.26121 8.67317C1.50433 10.5004 1.3063 12.5111 1.69215 14.4509C2.078 16.3907 3.03041 18.1725 4.42894 19.5711C5.82746 20.9696 7.60929 21.922 9.5491 22.3079C11.4889 22.6937 13.4996 22.4957 15.3268 21.7388C17.1541 20.9819 18.7159 19.7002 19.8147 18.0557C20.9135 16.4112 21.5 14.4778 21.5 12.5C21.5 11.1868 21.2413 9.88642 20.7388 8.67317C20.2363 7.45991 19.4997 6.35752 18.5711 5.42893C17.6425 4.50035 16.5401 3.76375 15.3268 3.2612C14.1136 2.75866 12.8132 2.5 11.5 2.5ZM11.5 20.5C9.91775 20.5 8.37104 20.0308 7.05544 19.1518C5.73985 18.2727 4.71447 17.0233 4.10897 15.5615C3.50347 14.0997 3.34504 12.4911 3.65372 10.9393C3.9624 9.38743 4.72433 7.96197 5.84315 6.84315C6.96197 5.72433 8.38743 4.9624 9.93928 4.65372C11.4911 4.34504 13.0997 4.50346 14.5615 5.10896C16.0233 5.71447 17.2727 6.73984 18.1518 8.05544C19.0308 9.37103 19.5 10.9177 19.5 12.5C19.5 14.6217 18.6572 16.6566 17.1569 18.1569C15.6566 19.6571 13.6217 20.5 11.5 20.5ZM14.6 13.13L12.5 11.92V7.5C12.5 7.23478 12.3946 6.98043 12.2071 6.79289C12.0196 6.60536 11.7652 6.5 11.5 6.5C11.2348 6.5 10.9804 6.60536 10.7929 6.79289C10.6054 6.98043 10.5 7.23478 10.5 7.5V12.5C10.5 12.5 10.5 12.58 10.5 12.62C10.5059 12.6889 10.5228 12.7564 10.55 12.82C10.5706 12.8793 10.5974 12.9363 10.63 12.99C10.6574 13.0468 10.6909 13.1005 10.73 13.15L10.89 13.28L10.98 13.37L13.58 14.87C13.7324 14.9564 13.9048 15.0012 14.08 15C14.3014 15.0015 14.5171 14.9296 14.6932 14.7953C14.8693 14.6611 14.9959 14.4722 15.0531 14.2583C15.1103 14.0444 15.0948 13.8176 15.0092 13.6134C14.9236 13.4092 14.7726 13.2392 14.58 13.13H14.6Z" fill="#F25F4C"/>
</svg>
