<svg width="24" height="25" viewBox="0 0 24 25" fill="none" xmlns="http://www.w3.org/2000/svg">
<path d="M21 12.1865C20.7348 12.1865 20.4804 12.2918 20.2929 12.4794C20.1054 12.6669 20 12.9212 20 13.1865V19.1865C20 19.4517 19.8946 19.706 19.7071 19.8936C19.5196 20.0811 19.2652 20.1865 19 20.1865H5C4.73478 20.1865 4.48043 20.0811 4.29289 19.8936C4.10536 19.706 4 19.4517 4 19.1865V5.18646C4 4.92125 4.10536 4.66689 4.29289 4.47936C4.48043 4.29182 4.73478 4.18646 5 4.18646H11C11.2652 4.18646 11.5196 4.08111 11.7071 3.89357C11.8946 3.70603 12 3.45168 12 3.18646C12 2.92125 11.8946 2.66689 11.7071 2.47936C11.5196 2.29182 11.2652 2.18646 11 2.18646H5C4.20435 2.18646 3.44129 2.50253 2.87868 3.06514C2.31607 3.62775 2 4.39081 2 5.18646V19.1865C2 19.9821 2.31607 20.7452 2.87868 21.3078C3.44129 21.8704 4.20435 22.1865 5 22.1865H19C19.7956 22.1865 20.5587 21.8704 21.1213 21.3078C21.6839 20.7452 22 19.9821 22 19.1865V13.1865C22 12.9212 21.8946 12.6669 21.7071 12.4794C21.5196 12.2918 21.2652 12.1865 21 12.1865ZM6 12.9465V17.1865C6 17.4517 6.10536 17.706 6.29289 17.8936C6.48043 18.0811 6.73478 18.1865 7 18.1865H11.24C11.3716 18.1872 11.5021 18.162 11.6239 18.1122C11.7457 18.0625 11.8566 17.9891 11.95 17.8965L18.87 10.9665L21.71 8.18646C21.8037 8.0935 21.8781 7.9829 21.9289 7.86104C21.9797 7.73918 22.0058 7.60847 22.0058 7.47646C22.0058 7.34445 21.9797 7.21374 21.9289 7.09189C21.8781 6.97003 21.8037 6.85943 21.71 6.76646L17.47 2.47646C17.377 2.38273 17.2664 2.30834 17.1446 2.25757C17.0227 2.2068 16.892 2.18066 16.76 2.18066C16.628 2.18066 16.4973 2.2068 16.3754 2.25757C16.2536 2.30834 16.143 2.38273 16.05 2.47646L13.23 5.30646L6.29 12.2365C6.19732 12.3299 6.12399 12.4407 6.07423 12.5626C6.02446 12.6844 5.99924 12.8149 6 12.9465ZM16.76 4.59646L19.59 7.42646L18.17 8.84646L15.34 6.01646L16.76 4.59646ZM8 13.3565L13.93 7.42646L16.76 10.2565L10.83 16.1865H8V13.3565Z" fill="#CCCCCC" fill-opacity="0.8"/>
</svg>
