<svg width="24" height="25" viewBox="0 0 24 25" fill="none" xmlns="http://www.w3.org/2000/svg">
<path d="M21 12.6867C20.7348 12.6867 20.4804 12.7921 20.2929 12.9796C20.1054 13.1671 20 13.4215 20 13.6867V19.6867C20 19.9519 19.8946 20.2063 19.7071 20.3938C19.5196 20.5814 19.2652 20.6867 19 20.6867H5C4.73478 20.6867 4.48043 20.5814 4.29289 20.3938C4.10536 20.2063 4 19.9519 4 19.6867V5.68671C4 5.42149 4.10536 5.16714 4.29289 4.9796C4.48043 4.79206 4.73478 4.68671 5 4.68671H11C11.2652 4.68671 11.5196 4.58135 11.7071 4.39381C11.8946 4.20628 12 3.95192 12 3.68671C12 3.42149 11.8946 3.16714 11.7071 2.9796C11.5196 2.79206 11.2652 2.68671 11 2.68671H5C4.20435 2.68671 3.44129 3.00278 2.87868 3.56539C2.31607 4.128 2 4.89106 2 5.68671V19.6867C2 20.4824 2.31607 21.2454 2.87868 21.808C3.44129 22.3706 4.20435 22.6867 5 22.6867H19C19.7956 22.6867 20.5587 22.3706 21.1213 21.808C21.6839 21.2454 22 20.4824 22 19.6867V13.6867C22 13.4215 21.8946 13.1671 21.7071 12.9796C21.5196 12.7921 21.2652 12.6867 21 12.6867ZM6 13.4467V17.6867C6 17.9519 6.10536 18.2063 6.29289 18.3938C6.48043 18.5814 6.73478 18.6867 7 18.6867H11.24C11.3716 18.6875 11.5021 18.6622 11.6239 18.6125C11.7457 18.5627 11.8566 18.4894 11.95 18.3967L18.87 11.4667L21.71 8.68671C21.8037 8.59374 21.8781 8.48314 21.9289 8.36128C21.9797 8.23942 22.0058 8.10872 22.0058 7.97671C22.0058 7.84469 21.9797 7.71399 21.9289 7.59213C21.8781 7.47027 21.8037 7.35967 21.71 7.26671L17.47 2.97671C17.377 2.88298 17.2664 2.80858 17.1446 2.75782C17.0227 2.70705 16.892 2.68091 16.76 2.68091C16.628 2.68091 16.4973 2.70705 16.3754 2.75782C16.2536 2.80858 16.143 2.88298 16.05 2.97671L13.23 5.80671L6.29 12.7367C6.19732 12.8301 6.12399 12.941 6.07423 13.0628C6.02446 13.1846 5.99924 13.3151 6 13.4467V13.4467ZM16.76 5.09671L19.59 7.92671L18.17 9.34671L15.34 6.51671L16.76 5.09671ZM8 13.8567L13.93 7.92671L16.76 10.7567L10.83 16.6867H8V13.8567Z" fill="#CCCCCC"/>
</svg>
