<svg width="25" height="25" viewBox="0 0 25 25" fill="none" xmlns="http://www.w3.org/2000/svg">
<path d="M9.21 8.18304L11.5 5.88304V15.473C11.5 15.7383 11.6054 15.9926 11.7929 16.1801C11.9804 16.3677 12.2348 16.473 12.5 16.473C12.7652 16.473 13.0196 16.3677 13.2071 16.1801C13.3946 15.9926 13.5 15.7383 13.5 15.473V5.88304L15.79 8.18304C15.883 8.27677 15.9936 8.35116 16.1154 8.40193C16.2373 8.4527 16.368 8.47884 16.5 8.47884C16.632 8.47884 16.7627 8.4527 16.8846 8.40193C17.0064 8.35116 17.117 8.27677 17.21 8.18304C17.3037 8.09008 17.3781 7.97948 17.4289 7.85762C17.4797 7.73576 17.5058 7.60505 17.5058 7.47304C17.5058 7.34103 17.4797 7.21032 17.4289 7.08846C17.3781 6.96661 17.3037 6.856 17.21 6.76304L13.21 2.76304C13.1149 2.672 13.0028 2.60064 12.88 2.55304C12.6365 2.45302 12.3635 2.45302 12.12 2.55304C11.9972 2.60064 11.8851 2.672 11.79 2.76304L7.79 6.76304C7.69676 6.85628 7.6228 6.96697 7.57234 7.08879C7.52188 7.21061 7.49591 7.34118 7.49591 7.47304C7.49591 7.6049 7.52188 7.73547 7.57234 7.85729C7.6228 7.97911 7.69676 8.0898 7.79 8.18304C7.88324 8.27628 7.99393 8.35024 8.11575 8.4007C8.23757 8.45116 8.36814 8.47713 8.5 8.47713C8.63186 8.47713 8.76243 8.45116 8.88425 8.4007C9.00607 8.35024 9.11676 8.27628 9.21 8.18304ZM21.5 14.473C21.2348 14.473 20.9804 14.5784 20.7929 14.7659C20.6054 14.9535 20.5 15.2078 20.5 15.473V19.473C20.5 19.7383 20.3946 19.9926 20.2071 20.1801C20.0196 20.3677 19.7652 20.473 19.5 20.473H5.5C5.23478 20.473 4.98043 20.3677 4.79289 20.1801C4.60536 19.9926 4.5 19.7383 4.5 19.473V15.473C4.5 15.2078 4.39464 14.9535 4.20711 14.7659C4.01957 14.5784 3.76522 14.473 3.5 14.473C3.23478 14.473 2.98043 14.5784 2.79289 14.7659C2.60536 14.9535 2.5 15.2078 2.5 15.473V19.473C2.5 20.2687 2.81607 21.0318 3.37868 21.5944C3.94129 22.157 4.70435 22.473 5.5 22.473H19.5C20.2956 22.473 21.0587 22.157 21.6213 21.5944C22.1839 21.0318 22.5 20.2687 22.5 19.473V15.473C22.5 15.2078 22.3946 14.9535 22.2071 14.7659C22.0196 14.5784 21.7652 14.473 21.5 14.473Z" fill="white"/>
</svg>
