<svg width="25" height="25" viewBox="0 0 25 25" fill="none" xmlns="http://www.w3.org/2000/svg">
<path d="M22.5 2.5H2.5C2.23478 2.5 1.98043 2.60536 1.79289 2.79289C1.60536 2.98043 1.5 3.23478 1.5 3.5V11.5C1.5 11.7652 1.60536 12.0196 1.79289 12.2071C1.98043 12.3946 2.23478 12.5 2.5 12.5H5.5V21.5C5.5 21.7652 5.60536 22.0196 5.79289 22.2071C5.98043 22.3946 6.23478 22.5 6.5 22.5H18.5C18.7652 22.5 19.0196 22.3946 19.2071 22.2071C19.3946 22.0196 19.5 21.7652 19.5 21.5V12.5H22.5C22.7652 12.5 23.0196 12.3946 23.2071 12.2071C23.3946 12.0196 23.5 11.7652 23.5 11.5V3.5C23.5 3.23478 23.3946 2.98043 23.2071 2.79289C23.0196 2.60536 22.7652 2.5 22.5 2.5ZM7.5 20.5V18.5C8.03043 18.5 8.53914 18.7107 8.91421 19.0858C9.28929 19.4609 9.5 19.9696 9.5 20.5H7.5ZM17.5 20.5H15.5C15.5 19.9696 15.7107 19.4609 16.0858 19.0858C16.4609 18.7107 16.9696 18.5 17.5 18.5V20.5ZM17.5 16.5C16.4391 16.5 15.4217 16.9214 14.6716 17.6716C13.9214 18.4217 13.5 19.4391 13.5 20.5H11.5C11.5 19.4391 11.0786 18.4217 10.3284 17.6716C9.57828 16.9214 8.56087 16.5 7.5 16.5V8.5H17.5V16.5ZM21.5 10.5H19.5V7.5C19.5 7.23478 19.3946 6.98043 19.2071 6.79289C19.0196 6.60536 18.7652 6.5 18.5 6.5H6.5C6.23478 6.5 5.98043 6.60536 5.79289 6.79289C5.60536 6.98043 5.5 7.23478 5.5 7.5V10.5H3.5V4.5H21.5V10.5ZM12.5 15.5C13.0933 15.5 13.6734 15.3241 14.1667 14.9944C14.6601 14.6648 15.0446 14.1962 15.2716 13.6481C15.4987 13.0999 15.5581 12.4967 15.4424 11.9147C15.3266 11.3328 15.0409 10.7982 14.6213 10.3787C14.2018 9.95912 13.6672 9.6734 13.0853 9.55764C12.5033 9.44189 11.9001 9.5013 11.3519 9.72836C10.8038 9.95542 10.3352 10.3399 10.0056 10.8333C9.67595 11.3266 9.5 11.9067 9.5 12.5C9.5 13.2956 9.81607 14.0587 10.3787 14.6213C10.9413 15.1839 11.7044 15.5 12.5 15.5ZM12.5 11.5C12.6978 11.5 12.8911 11.5586 13.0556 11.6685C13.22 11.7784 13.3482 11.9346 13.4239 12.1173C13.4996 12.3 13.5194 12.5011 13.4808 12.6951C13.4422 12.8891 13.347 13.0673 13.2071 13.2071C13.0673 13.347 12.8891 13.4422 12.6951 13.4808C12.5011 13.5194 12.3 13.4996 12.1173 13.4239C11.9346 13.3482 11.7784 13.22 11.6685 13.0556C11.5586 12.8911 11.5 12.6978 11.5 12.5C11.5 12.2348 11.6054 11.9804 11.7929 11.7929C11.9804 11.6054 12.2348 11.5 12.5 11.5Z" fill="#F25F4C"/>
</svg>
