<svg width="26" height="26" viewBox="0 0 26 26" fill="none" xmlns="http://www.w3.org/2000/svg">
<path d="M8.31249 16.3864C8.11457 16.3864 7.91665 16.3135 7.7604 16.1572C7.61511 16.0102 7.53363 15.8118 7.53363 15.6051C7.53363 15.3984 7.61511 15.2001 7.7604 15.0531L11.0937 11.7197C11.1743 11.637 11.2724 11.5734 11.3808 11.5336C11.4892 11.4939 11.6052 11.4789 11.7202 11.4899C11.8351 11.5009 11.9461 11.5376 12.045 11.5972C12.1439 11.6568 12.2282 11.7378 12.2917 11.8343L13.4271 13.5426L17.125 9.84473C17.4271 9.54264 17.9271 9.54264 18.2292 9.84473C18.5312 10.1468 18.5312 10.6468 18.2292 10.9489L13.8542 15.3239C13.7736 15.4066 13.6755 15.4702 13.5671 15.51C13.4586 15.5497 13.3427 15.5647 13.2277 15.5537C13.1128 15.5427 13.0018 15.506 12.9029 15.4464C12.8039 15.3868 12.7197 15.3058 12.6562 15.2093L11.5208 13.501L8.86457 16.1572C8.70832 16.3135 8.5104 16.3864 8.31249 16.3864Z" fill="#CCCCCC"/>
<path d="M17.6875 13.2603C17.2604 13.2603 16.9063 12.9062 16.9063 12.4791V11.177H15.6042C15.1771 11.177 14.8229 10.8228 14.8229 10.3958C14.8229 9.96867 15.1771 9.6145 15.6042 9.6145H17.6875C18.1146 9.6145 18.4688 9.96867 18.4688 10.3958V12.4791C18.4688 12.9062 18.1146 13.2603 17.6875 13.2603Z" fill="#CCCCCC"/>
<path d="M16.125 24.1978H9.87498C4.21873 24.1978 1.80206 21.7812 1.80206 16.1249V9.87492C1.80206 4.21867 4.21873 1.802 9.87498 1.802H16.125C21.7812 1.802 24.1979 4.21867 24.1979 9.87492V16.1249C24.1979 21.7812 21.7812 24.1978 16.125 24.1978ZM9.87498 3.3645C5.0729 3.3645 3.36456 5.07284 3.36456 9.87492V16.1249C3.36456 20.927 5.0729 22.6353 9.87498 22.6353H16.125C20.9271 22.6353 22.6354 20.927 22.6354 16.1249V9.87492C22.6354 5.07284 20.9271 3.3645 16.125 3.3645H9.87498Z" fill="#CCCCCC"/>
</svg>
