<svg width="25" height="27" viewBox="0 0 25 27" fill="none" xmlns="http://www.w3.org/2000/svg">
<path d="M7.743 16.6408C7.54684 16.6408 7.35069 16.5644 7.19582 16.4007C7.05183 16.2467 6.97107 16.0389 6.97107 15.8224C6.97107 15.6059 7.05183 15.3981 7.19582 15.2441L10.4995 11.7526C10.5794 11.6659 10.6766 11.5993 10.7841 11.5577C10.8915 11.516 11.0064 11.5004 11.1204 11.5119C11.2343 11.5234 11.3443 11.5618 11.4424 11.6242C11.5404 11.6867 11.6239 11.7715 11.6868 11.8726L12.8121 13.662L16.4771 9.78859C16.7765 9.47216 17.2721 9.47216 17.5715 9.78859C17.8709 10.105 17.8709 10.6287 17.5715 10.9452L13.2354 15.5278C13.1555 15.6145 13.0583 15.6811 12.9508 15.7227C12.8434 15.7644 12.7285 15.78 12.6145 15.7685C12.5006 15.757 12.3906 15.7186 12.2925 15.6562C12.1945 15.5938 12.111 15.5089 12.0481 15.4078L10.9228 13.6184L8.29017 16.4007C8.13531 16.5644 7.93915 16.6408 7.743 16.6408Z" fill="#CCCCCC"/>
<path d="M17.0347 13.3663C16.6114 13.3663 16.2604 12.9953 16.2604 12.5479V11.184H14.9699C14.5466 11.184 14.1956 10.8131 14.1956 10.3657C14.1956 9.91834 14.5466 9.54736 14.9699 9.54736H17.0347C17.4579 9.54736 17.809 9.91834 17.809 10.3657V12.5479C17.809 12.9953 17.4579 13.3663 17.0347 13.3663Z" fill="#CCCCCC"/>
<path d="M15.4861 24.8227H9.29165C3.6857 24.8227 1.29053 22.2913 1.29053 16.3665V9.81988C1.29053 3.89515 3.6857 1.36377 9.29165 1.36377H15.4861C21.092 1.36377 23.4872 3.89515 23.4872 9.81988V16.3665C23.4872 22.2913 21.092 24.8227 15.4861 24.8227ZM9.29165 3.00044C4.53227 3.00044 2.83913 4.78986 2.83913 9.81988V16.3665C2.83913 21.3966 4.53227 23.186 9.29165 23.186H15.4861C20.2454 23.186 21.9386 21.3966 21.9386 16.3665V9.81988C21.9386 4.78986 20.2454 3.00044 15.4861 3.00044H9.29165Z" fill="#CCCCCC"/>
</svg>
