<svg width="25" height="24" viewBox="0 0 25 24" fill="none" xmlns="http://www.w3.org/2000/svg">
<path d="M21.21 9.29L15.21 3.29C15.1178 3.20005 15.0092 3.12874 14.89 3.08C14.766 3.02962 14.6338 3.0025 14.5 3H6.5C5.70435 3 4.94129 3.31607 4.37868 3.87868C3.81607 4.44129 3.5 5.20435 3.5 6V18C3.5 18.7956 3.81607 19.5587 4.37868 20.1213C4.94129 20.6839 5.70435 21 6.5 21H18.5C19.2956 21 20.0587 20.6839 20.6213 20.1213C21.1839 19.5587 21.5 18.7956 21.5 18V10C21.5008 9.86839 21.4755 9.73793 21.4258 9.61609C21.376 9.49426 21.3027 9.38344 21.21 9.29ZM9.5 5H13.5V7H9.5V5ZM15.5 19H9.5V16C9.5 15.7348 9.60536 15.4804 9.79289 15.2929C9.98043 15.1054 10.2348 15 10.5 15H14.5C14.7652 15 15.0196 15.1054 15.2071 15.2929C15.3946 15.4804 15.5 15.7348 15.5 16V19ZM19.5 18C19.5 18.2652 19.3946 18.5196 19.2071 18.7071C19.0196 18.8946 18.7652 19 18.5 19H17.5V16C17.5 15.2044 17.1839 14.4413 16.6213 13.8787C16.0587 13.3161 15.2956 13 14.5 13H10.5C9.70435 13 8.94129 13.3161 8.37868 13.8787C7.81607 14.4413 7.5 15.2044 7.5 16V19H6.5C6.23478 19 5.98043 18.8946 5.79289 18.7071C5.60536 18.5196 5.5 18.2652 5.5 18V6C5.5 5.73478 5.60536 5.48043 5.79289 5.29289C5.98043 5.10536 6.23478 5 6.5 5H7.5V8C7.5 8.26522 7.60536 8.51957 7.79289 8.70711C7.98043 8.89464 8.23478 9 8.5 9H14.5C14.7652 9 15.0196 8.89464 15.2071 8.70711C15.3946 8.51957 15.5 8.26522 15.5 8V6.41L19.5 10.41V18Z" fill="white"/>
</svg>
