<svg width="20" height="26" viewBox="0 0 20 26" fill="none" xmlns="http://www.w3.org/2000/svg">
<path d="M2.11475 9.47168H7.97412C8.18896 9.47168 8.36475 9.64746 8.36475 9.8623V10.6436C8.36475 10.8584 8.18896 11.0342 7.97412 11.0342H2.11475V14.1592H7.97412C8.18896 14.1592 8.36475 14.335 8.36475 14.5498V15.3311C8.36475 15.5459 8.18896 15.7217 7.97412 15.7217H2.11475V18.8467H7.97412C8.18896 18.8467 8.36475 19.0225 8.36475 19.2373V20.0186C8.36475 20.2334 8.18896 20.4092 7.97412 20.4092H2.11475V23.5342C2.11475 24.3936 2.81787 25.0967 3.67725 25.0967H16.1772C17.0366 25.0967 17.7397 24.3936 17.7397 23.5342V6.34668H2.11475V9.47168ZM18.1304 0.0966797H1.72412C1.07959 0.0966797 0.552246 0.624023 0.552246 1.26855V3.6123C0.552246 4.25684 1.07959 4.78418 1.72412 4.78418H18.1304C18.7749 4.78418 19.3022 4.25684 19.3022 3.6123V1.26855C19.3022 0.624023 18.7749 0.0966797 18.1304 0.0966797Z" fill="#FF5B19"/>
</svg>
