<svg width="19" height="20" viewBox="0 0 19 20" fill="none" xmlns="http://www.w3.org/2000/svg">
<path d="M18.1343 14.71L15.7143 12.29C15.6214 12.1963 15.5108 12.1219 15.3889 12.0711C15.267 12.0203 15.1363 11.9942 15.0043 11.9942C14.8723 11.9942 14.7416 12.0203 14.6197 12.0711C14.4979 12.1219 14.3873 12.1963 14.2943 12.29L10.7143 15.87C10.6216 15.9634 10.5483 16.0743 10.4985 16.1961C10.4488 16.3179 10.4236 16.4484 10.4243 16.58V19C10.4243 19.2652 10.5297 19.5196 10.7172 19.7071C10.9047 19.8946 11.1591 20 11.4243 20H13.8443C13.9759 20.0008 14.1064 19.9755 14.2282 19.9258C14.3501 19.876 14.4609 19.8027 14.5543 19.71L18.1343 16.13C18.228 16.037 18.3024 15.9264 18.3532 15.8046C18.404 15.6827 18.4301 15.552 18.4301 15.42C18.4301 15.288 18.404 15.1573 18.3532 15.0354C18.3024 14.9136 18.228 14.803 18.1343 14.71V14.71ZM13.4243 18H12.4243V17L15.0043 14.42L16.0043 15.42L13.4243 18ZM7.42432 18H3.42432C3.1591 18 2.90475 17.8946 2.71721 17.7071C2.52967 17.5196 2.42432 17.2652 2.42432 17V3C2.42432 2.73478 2.52967 2.48043 2.71721 2.29289C2.90475 2.10536 3.1591 2 3.42432 2H8.42432V5C8.42432 5.79565 8.74039 6.55871 9.303 7.12132C9.8656 7.68393 10.6287 8 11.4243 8H14.4243V9C14.4243 9.26522 14.5297 9.51957 14.7172 9.70711C14.9047 9.89464 15.1591 10 15.4243 10C15.6895 10 15.9439 9.89464 16.1314 9.70711C16.319 9.51957 16.4243 9.26522 16.4243 9V7C16.4243 7 16.4243 7 16.4243 6.94C16.4139 6.84813 16.3938 6.75763 16.3643 6.67V6.58C16.3162 6.47718 16.2521 6.38267 16.1743 6.3L10.1743 0.3C10.0917 0.222216 9.99714 0.158081 9.89432 0.11C9.86447 0.10576 9.83417 0.10576 9.80432 0.11L9.48432 0H3.42432C2.62867 0 1.86561 0.316071 1.303 0.87868C0.740387 1.44129 0.424316 2.20435 0.424316 3V17C0.424316 17.7956 0.740387 18.5587 1.303 19.1213C1.86561 19.6839 2.62867 20 3.42432 20H7.42432C7.68953 20 7.94389 19.8946 8.13142 19.7071C8.31896 19.5196 8.42432 19.2652 8.42432 19C8.42432 18.7348 8.31896 18.4804 8.13142 18.2929C7.94389 18.1054 7.68953 18 7.42432 18ZM10.4243 3.41L13.0143 6H11.4243C11.1591 6 10.9047 5.89464 10.7172 5.70711C10.5297 5.51957 10.4243 5.26522 10.4243 5V3.41ZM5.42432 12H11.4243C11.6895 12 11.9439 11.8946 12.1314 11.7071C12.319 11.5196 12.4243 11.2652 12.4243 11C12.4243 10.7348 12.319 10.4804 12.1314 10.2929C11.9439 10.1054 11.6895 10 11.4243 10H5.42432C5.1591 10 4.90475 10.1054 4.71721 10.2929C4.52967 10.4804 4.42432 10.7348 4.42432 11C4.42432 11.2652 4.52967 11.5196 4.71721 11.7071C4.90475 11.8946 5.1591 12 5.42432 12ZM5.42432 8H6.42432C6.68953 8 6.94389 7.89464 7.13142 7.70711C7.31896 7.51957 7.42432 7.26522 7.42432 7C7.42432 6.73478 7.31896 6.48043 7.13142 6.29289C6.94389 6.10536 6.68953 6 6.42432 6H5.42432C5.1591 6 4.90475 6.10536 4.71721 6.29289C4.52967 6.48043 4.42432 6.73478 4.42432 7C4.42432 7.26522 4.52967 7.51957 4.71721 7.70711C4.90475 7.89464 5.1591 8 5.42432 8ZM7.42432 14H5.42432C5.1591 14 4.90475 14.1054 4.71721 14.2929C4.52967 14.4804 4.42432 14.7348 4.42432 15C4.42432 15.2652 4.52967 15.5196 4.71721 15.7071C4.90475 15.8946 5.1591 16 5.42432 16H7.42432C7.68953 16 7.94389 15.8946 8.13142 15.7071C8.31896 15.5196 8.42432 15.2652 8.42432 15C8.42432 14.7348 8.31896 14.4804 8.13142 14.2929C7.94389 14.1054 7.68953 14 7.42432 14Z" fill="white"/>
</svg>
