<svg width="26" height="23" viewBox="0 0 26 23" fill="none" xmlns="http://www.w3.org/2000/svg">
<path d="M18.0262 4.09456L21.9411 8.00949C22.1061 8.17442 22.1061 8.44352 21.9411 8.60845L12.462 18.0876L8.43419 18.5347C7.896 18.5954 7.44027 18.1397 7.50103 17.6015L7.94808 13.5737L17.4272 4.09456C17.5922 3.92963 17.8613 3.92963 18.0262 4.09456ZM25.0575 3.10064L22.9394 0.982585C22.2797 0.322862 21.2076 0.322862 20.5436 0.982585L19.0071 2.51904C18.8422 2.68397 18.8422 2.95307 19.0071 3.118L22.922 7.03293C23.087 7.19786 23.3561 7.19786 23.521 7.03293L25.0575 5.49647C25.7172 4.83241 25.7172 3.76036 25.0575 3.10064ZM17.2189 15.5095V19.9279H3.33002V6.03901H13.304C13.4429 6.03901 13.5731 5.98258 13.6729 5.8871L15.409 4.15099C15.7389 3.82113 15.5045 3.26123 15.0401 3.26123H2.63558C1.48541 3.26123 0.552246 4.19439 0.552246 5.34456V20.6223C0.552246 21.7725 1.48541 22.7057 2.63558 22.7057H17.9134C19.0635 22.7057 19.9967 21.7725 19.9967 20.6223V13.7734C19.9967 13.309 19.4368 13.0789 19.1069 13.4045L17.3708 15.1406C17.2753 15.2404 17.2189 15.3706 17.2189 15.5095Z" fill="#FF5B19"/>
</svg>
